<mxfile host="app.diagrams.net" modified="2024-02-12T20:21:34.234Z" agent="Mozilla/5.0 (X11; Linux x86_64) AppleWebKit/537.36 (KHTML, like Gecko) Chrome/121.0.0.0 Safari/537.36" etag="qUcFwernq-jGX_EQK10K" version="23.1.3" type="device">
  <diagram name="Stránka-1" id="aipoAuUvGRiBpB22vb3T">
    <mxGraphModel dx="1434" dy="759" grid="1" gridSize="10" guides="1" tooltips="1" connect="1" arrows="1" fold="1" page="1" pageScale="1" pageWidth="827" pageHeight="1169" math="0" shadow="0">
      <root>
        <mxCell id="0" />
        <mxCell id="1" parent="0" />
        <mxCell id="e9DzHkO6Z4M1-QwWfhWD-35" value="" style="rounded=0;whiteSpace=wrap;html=1;fillColor=none;dashed=1;dashPattern=8 8;" parent="1" vertex="1">
          <mxGeometry x="500" y="490" width="160" height="320" as="geometry" />
        </mxCell>
        <mxCell id="v46e6K_8IC1KZaEUlDx5-13" value="" style="rounded=0;whiteSpace=wrap;html=1;fillColor=none;dashed=1;dashPattern=8 8;" parent="1" vertex="1">
          <mxGeometry x="80" y="280" width="160" height="320" as="geometry" />
        </mxCell>
        <mxCell id="v46e6K_8IC1KZaEUlDx5-7" style="edgeStyle=orthogonalEdgeStyle;rounded=0;orthogonalLoop=1;jettySize=auto;html=1;exitX=0.5;exitY=1;exitDx=0;exitDy=0;entryX=1;entryY=0.5;entryDx=0;entryDy=0;" parent="1" source="v46e6K_8IC1KZaEUlDx5-1" target="v46e6K_8IC1KZaEUlDx5-6" edge="1">
          <mxGeometry relative="1" as="geometry" />
        </mxCell>
        <mxCell id="v46e6K_8IC1KZaEUlDx5-8" value="K₀ (16b)" style="edgeLabel;html=1;align=center;verticalAlign=middle;resizable=0;points=[];" parent="v46e6K_8IC1KZaEUlDx5-7" vertex="1" connectable="0">
          <mxGeometry x="-0.1407" y="2" relative="1" as="geometry">
            <mxPoint x="-114" y="-12" as="offset" />
          </mxGeometry>
        </mxCell>
        <mxCell id="e9DzHkO6Z4M1-QwWfhWD-18" style="edgeStyle=orthogonalEdgeStyle;rounded=0;orthogonalLoop=1;jettySize=auto;html=1;exitX=0.5;exitY=1;exitDx=0;exitDy=0;entryX=1;entryY=0.5;entryDx=0;entryDy=0;" parent="1" source="v46e6K_8IC1KZaEUlDx5-1" target="e9DzHkO6Z4M1-QwWfhWD-13" edge="1">
          <mxGeometry relative="1" as="geometry" />
        </mxCell>
        <mxCell id="e9DzHkO6Z4M1-QwWfhWD-20" style="edgeStyle=orthogonalEdgeStyle;rounded=0;orthogonalLoop=1;jettySize=auto;html=1;exitX=0.5;exitY=1;exitDx=0;exitDy=0;entryX=1;entryY=0.5;entryDx=0;entryDy=0;" parent="1" source="v46e6K_8IC1KZaEUlDx5-1" target="e9DzHkO6Z4M1-QwWfhWD-15" edge="1">
          <mxGeometry relative="1" as="geometry" />
        </mxCell>
        <mxCell id="e9DzHkO6Z4M1-QwWfhWD-51" style="edgeStyle=orthogonalEdgeStyle;rounded=0;orthogonalLoop=1;jettySize=auto;html=1;exitX=0.5;exitY=1;exitDx=0;exitDy=0;entryX=0;entryY=0.5;entryDx=0;entryDy=0;" parent="1" source="v46e6K_8IC1KZaEUlDx5-1" target="e9DzHkO6Z4M1-QwWfhWD-42" edge="1">
          <mxGeometry relative="1" as="geometry" />
        </mxCell>
        <mxCell id="e9DzHkO6Z4M1-QwWfhWD-57" style="edgeStyle=orthogonalEdgeStyle;rounded=0;orthogonalLoop=1;jettySize=auto;html=1;exitX=0.5;exitY=1;exitDx=0;exitDy=0;entryX=0;entryY=0.5;entryDx=0;entryDy=0;" parent="1" source="v46e6K_8IC1KZaEUlDx5-1" target="e9DzHkO6Z4M1-QwWfhWD-40" edge="1">
          <mxGeometry relative="1" as="geometry" />
        </mxCell>
        <mxCell id="e9DzHkO6Z4M1-QwWfhWD-63" style="edgeStyle=orthogonalEdgeStyle;rounded=0;orthogonalLoop=1;jettySize=auto;html=1;exitX=0.5;exitY=1;exitDx=0;exitDy=0;entryX=0;entryY=0.5;entryDx=0;entryDy=0;" parent="1" source="v46e6K_8IC1KZaEUlDx5-1" target="e9DzHkO6Z4M1-QwWfhWD-28" edge="1">
          <mxGeometry relative="1" as="geometry" />
        </mxCell>
        <mxCell id="v46e6K_8IC1KZaEUlDx5-1" value="Generování rundovních klíčů" style="rounded=0;whiteSpace=wrap;html=1;fillColor=#ffe6cc;strokeColor=#d79b00;" parent="1" vertex="1">
          <mxGeometry x="340" y="80" width="120" height="60" as="geometry" />
        </mxCell>
        <mxCell id="v46e6K_8IC1KZaEUlDx5-2" value="Šifrování" style="text;html=1;strokeColor=none;fillColor=none;align=center;verticalAlign=middle;whiteSpace=wrap;rounded=0;" parent="1" vertex="1">
          <mxGeometry x="130" y="80" width="60" height="30" as="geometry" />
        </mxCell>
        <mxCell id="v46e6K_8IC1KZaEUlDx5-9" value="in (16b)" style="edgeStyle=orthogonalEdgeStyle;rounded=0;orthogonalLoop=1;jettySize=auto;html=1;exitX=0.5;exitY=1;exitDx=0;exitDy=0;entryX=0.5;entryY=0;entryDx=0;entryDy=0;" parent="1" source="v46e6K_8IC1KZaEUlDx5-5" target="v46e6K_8IC1KZaEUlDx5-6" edge="1">
          <mxGeometry x="0.3333" y="30" relative="1" as="geometry">
            <mxPoint as="offset" />
          </mxGeometry>
        </mxCell>
        <mxCell id="v46e6K_8IC1KZaEUlDx5-5" value="Vstupní text" style="shape=parallelogram;perimeter=parallelogramPerimeter;whiteSpace=wrap;html=1;fixedSize=1;" parent="1" vertex="1">
          <mxGeometry x="100" y="110" width="120" height="60" as="geometry" />
        </mxCell>
        <mxCell id="v46e6K_8IC1KZaEUlDx5-11" style="edgeStyle=orthogonalEdgeStyle;rounded=0;orthogonalLoop=1;jettySize=auto;html=1;exitX=0.5;exitY=1;exitDx=0;exitDy=0;entryX=0.5;entryY=0;entryDx=0;entryDy=0;" parent="1" source="v46e6K_8IC1KZaEUlDx5-6" target="v46e6K_8IC1KZaEUlDx5-10" edge="1">
          <mxGeometry relative="1" as="geometry" />
        </mxCell>
        <mxCell id="v46e6K_8IC1KZaEUlDx5-6" value="Kombinace klíče s textem (in ⊕ K₀)" style="rounded=0;whiteSpace=wrap;html=1;" parent="1" vertex="1">
          <mxGeometry x="100" y="200" width="120" height="60" as="geometry" />
        </mxCell>
        <mxCell id="e9DzHkO6Z4M1-QwWfhWD-2" style="edgeStyle=orthogonalEdgeStyle;rounded=0;orthogonalLoop=1;jettySize=auto;html=1;exitX=0.5;exitY=1;exitDx=0;exitDy=0;entryX=0.5;entryY=0;entryDx=0;entryDy=0;" parent="1" source="v46e6K_8IC1KZaEUlDx5-10" target="v46e6K_8IC1KZaEUlDx5-14" edge="1">
          <mxGeometry relative="1" as="geometry" />
        </mxCell>
        <mxCell id="v46e6K_8IC1KZaEUlDx5-10" value="S-box substituce" style="rounded=0;whiteSpace=wrap;html=1;fillColor=#fff2cc;strokeColor=#d6b656;" parent="1" vertex="1">
          <mxGeometry x="100" y="290" width="120" height="60" as="geometry" />
        </mxCell>
        <mxCell id="e9DzHkO6Z4M1-QwWfhWD-3" style="edgeStyle=orthogonalEdgeStyle;rounded=0;orthogonalLoop=1;jettySize=auto;html=1;exitX=0.5;exitY=1;exitDx=0;exitDy=0;entryX=0.5;entryY=0;entryDx=0;entryDy=0;" parent="1" source="v46e6K_8IC1KZaEUlDx5-14" target="e9DzHkO6Z4M1-QwWfhWD-1" edge="1">
          <mxGeometry relative="1" as="geometry" />
        </mxCell>
        <mxCell id="v46e6K_8IC1KZaEUlDx5-14" value="Posun řádků matice" style="rounded=0;whiteSpace=wrap;html=1;fillColor=#f8cecc;strokeColor=#b85450;" parent="1" vertex="1">
          <mxGeometry x="100" y="370" width="120" height="60" as="geometry" />
        </mxCell>
        <mxCell id="e9DzHkO6Z4M1-QwWfhWD-12" style="edgeStyle=orthogonalEdgeStyle;rounded=0;orthogonalLoop=1;jettySize=auto;html=1;exitX=0.5;exitY=1;exitDx=0;exitDy=0;entryX=0.5;entryY=0;entryDx=0;entryDy=0;" parent="1" source="e9DzHkO6Z4M1-QwWfhWD-13" target="e9DzHkO6Z4M1-QwWfhWD-7" edge="1">
          <mxGeometry relative="1" as="geometry" />
        </mxCell>
        <mxCell id="e9DzHkO6Z4M1-QwWfhWD-1" value="Pronásobení matic&lt;br&gt;Galois multiply" style="rounded=0;whiteSpace=wrap;html=1;fillColor=#e1d5e7;strokeColor=#9673a6;" parent="1" vertex="1">
          <mxGeometry x="100" y="450" width="120" height="60" as="geometry" />
        </mxCell>
        <mxCell id="e9DzHkO6Z4M1-QwWfhWD-4" value="Runda #1" style="text;html=1;strokeColor=none;fillColor=none;align=center;verticalAlign=middle;whiteSpace=wrap;rounded=0;" parent="1" vertex="1">
          <mxGeometry x="20" y="280" width="60" height="30" as="geometry" />
        </mxCell>
        <mxCell id="e9DzHkO6Z4M1-QwWfhWD-5" value="" style="rounded=0;whiteSpace=wrap;html=1;fillColor=none;dashed=1;dashPattern=8 8;" parent="1" vertex="1">
          <mxGeometry x="80" y="620" width="160" height="230" as="geometry" />
        </mxCell>
        <mxCell id="e9DzHkO6Z4M1-QwWfhWD-6" style="edgeStyle=orthogonalEdgeStyle;rounded=0;orthogonalLoop=1;jettySize=auto;html=1;exitX=0.5;exitY=1;exitDx=0;exitDy=0;entryX=0.5;entryY=0;entryDx=0;entryDy=0;" parent="1" source="e9DzHkO6Z4M1-QwWfhWD-7" target="e9DzHkO6Z4M1-QwWfhWD-9" edge="1">
          <mxGeometry relative="1" as="geometry" />
        </mxCell>
        <mxCell id="e9DzHkO6Z4M1-QwWfhWD-7" value="S-box substituce" style="rounded=0;whiteSpace=wrap;html=1;fillColor=#fff2cc;strokeColor=#d6b656;" parent="1" vertex="1">
          <mxGeometry x="100" y="630" width="120" height="60" as="geometry" />
        </mxCell>
        <mxCell id="e9DzHkO6Z4M1-QwWfhWD-52" style="edgeStyle=orthogonalEdgeStyle;rounded=0;orthogonalLoop=1;jettySize=auto;html=1;exitX=0.5;exitY=1;exitDx=0;exitDy=0;entryX=0.5;entryY=0;entryDx=0;entryDy=0;" parent="1" source="e9DzHkO6Z4M1-QwWfhWD-9" target="e9DzHkO6Z4M1-QwWfhWD-15" edge="1">
          <mxGeometry relative="1" as="geometry" />
        </mxCell>
        <mxCell id="e9DzHkO6Z4M1-QwWfhWD-9" value="Posun řádků matice" style="rounded=0;whiteSpace=wrap;html=1;fillColor=#f8cecc;strokeColor=#b85450;" parent="1" vertex="1">
          <mxGeometry x="100" y="705" width="120" height="60" as="geometry" />
        </mxCell>
        <mxCell id="e9DzHkO6Z4M1-QwWfhWD-11" value="Runda #2" style="text;html=1;strokeColor=none;fillColor=none;align=center;verticalAlign=middle;whiteSpace=wrap;rounded=0;" parent="1" vertex="1">
          <mxGeometry x="20" y="620" width="60" height="30" as="geometry" />
        </mxCell>
        <mxCell id="e9DzHkO6Z4M1-QwWfhWD-14" value="" style="edgeStyle=orthogonalEdgeStyle;rounded=0;orthogonalLoop=1;jettySize=auto;html=1;exitX=0.5;exitY=1;exitDx=0;exitDy=0;entryX=0.5;entryY=0;entryDx=0;entryDy=0;" parent="1" source="e9DzHkO6Z4M1-QwWfhWD-1" target="e9DzHkO6Z4M1-QwWfhWD-13" edge="1">
          <mxGeometry relative="1" as="geometry">
            <mxPoint x="160" y="510" as="sourcePoint" />
            <mxPoint x="160" y="630" as="targetPoint" />
          </mxGeometry>
        </mxCell>
        <mxCell id="e9DzHkO6Z4M1-QwWfhWD-13" value="Kombinace klíče se vstupem&amp;nbsp;&amp;nbsp;(in ⊕ K₁)" style="rounded=0;whiteSpace=wrap;html=1;" parent="1" vertex="1">
          <mxGeometry x="100" y="525" width="120" height="60" as="geometry" />
        </mxCell>
        <mxCell id="e9DzHkO6Z4M1-QwWfhWD-16" style="edgeStyle=orthogonalEdgeStyle;rounded=0;orthogonalLoop=1;jettySize=auto;html=1;exitX=0.5;exitY=1;exitDx=0;exitDy=0;entryX=0.5;entryY=0;entryDx=0;entryDy=0;" parent="1" source="e9DzHkO6Z4M1-QwWfhWD-15" target="e9DzHkO6Z4M1-QwWfhWD-17" edge="1">
          <mxGeometry relative="1" as="geometry">
            <mxPoint x="160" y="900" as="targetPoint" />
          </mxGeometry>
        </mxCell>
        <mxCell id="e9DzHkO6Z4M1-QwWfhWD-64" value="out (16b)" style="edgeLabel;html=1;align=center;verticalAlign=middle;resizable=0;points=[];" parent="e9DzHkO6Z4M1-QwWfhWD-16" vertex="1" connectable="0">
          <mxGeometry x="0.52" y="1" relative="1" as="geometry">
            <mxPoint x="29" y="-18" as="offset" />
          </mxGeometry>
        </mxCell>
        <mxCell id="e9DzHkO6Z4M1-QwWfhWD-15" value="Kombinace klíče se vstupem&amp;nbsp;&amp;nbsp;(in ⊕ K₂)" style="rounded=0;whiteSpace=wrap;html=1;" parent="1" vertex="1">
          <mxGeometry x="100" y="780" width="120" height="60" as="geometry" />
        </mxCell>
        <mxCell id="e9DzHkO6Z4M1-QwWfhWD-17" value="Šifrovaný výstup" style="shape=parallelogram;perimeter=parallelogramPerimeter;whiteSpace=wrap;html=1;fixedSize=1;" parent="1" vertex="1">
          <mxGeometry x="100" y="890" width="120" height="60" as="geometry" />
        </mxCell>
        <mxCell id="e9DzHkO6Z4M1-QwWfhWD-19" value="K₁&amp;nbsp;(16b)" style="edgeLabel;html=1;align=center;verticalAlign=middle;resizable=0;points=[];" parent="1" vertex="1" connectable="0">
          <mxGeometry x="270" y="540" as="geometry" />
        </mxCell>
        <mxCell id="e9DzHkO6Z4M1-QwWfhWD-21" value="K₂&amp;nbsp;(16b)" style="edgeLabel;html=1;align=center;verticalAlign=middle;resizable=0;points=[];" parent="1" vertex="1" connectable="0">
          <mxGeometry x="270" y="790" as="geometry" />
        </mxCell>
        <mxCell id="e9DzHkO6Z4M1-QwWfhWD-22" value="" style="rounded=0;whiteSpace=wrap;html=1;fillColor=none;dashed=1;dashPattern=8 8;" parent="1" vertex="1">
          <mxGeometry x="500" y="210" width="160" height="260" as="geometry" />
        </mxCell>
        <mxCell id="e9DzHkO6Z4M1-QwWfhWD-23" value="K₀ (16b)" style="edgeLabel;html=1;align=center;verticalAlign=middle;resizable=0;points=[];" parent="1" vertex="1" connectable="0">
          <mxGeometry x="460" y="250" as="geometry" />
        </mxCell>
        <mxCell id="e9DzHkO6Z4M1-QwWfhWD-24" value="Dešifrování" style="text;html=1;strokeColor=none;fillColor=none;align=center;verticalAlign=middle;whiteSpace=wrap;rounded=0;" parent="1" vertex="1">
          <mxGeometry x="550" y="80" width="60" height="30" as="geometry" />
        </mxCell>
        <mxCell id="e9DzHkO6Z4M1-QwWfhWD-26" value="Výstupní plain text" style="shape=parallelogram;perimeter=parallelogramPerimeter;whiteSpace=wrap;html=1;fixedSize=1;" parent="1" vertex="1">
          <mxGeometry x="510" y="110" width="140" height="60" as="geometry" />
        </mxCell>
        <mxCell id="e9DzHkO6Z4M1-QwWfhWD-53" style="edgeStyle=orthogonalEdgeStyle;rounded=0;orthogonalLoop=1;jettySize=auto;html=1;exitX=0.5;exitY=0;exitDx=0;exitDy=0;entryX=0.5;entryY=1;entryDx=0;entryDy=0;" parent="1" source="e9DzHkO6Z4M1-QwWfhWD-28" target="e9DzHkO6Z4M1-QwWfhWD-26" edge="1">
          <mxGeometry relative="1" as="geometry" />
        </mxCell>
        <mxCell id="e9DzHkO6Z4M1-QwWfhWD-54" value="out (16b)" style="edgeLabel;html=1;align=center;verticalAlign=middle;resizable=0;points=[];" parent="e9DzHkO6Z4M1-QwWfhWD-53" vertex="1" connectable="0">
          <mxGeometry x="-0.1333" relative="1" as="geometry">
            <mxPoint x="30" y="-25" as="offset" />
          </mxGeometry>
        </mxCell>
        <mxCell id="e9DzHkO6Z4M1-QwWfhWD-28" value="Kombinace klíče s textem (in ⊕ K₀)" style="rounded=0;whiteSpace=wrap;html=1;" parent="1" vertex="1">
          <mxGeometry x="520" y="230" width="120" height="60" as="geometry" />
        </mxCell>
        <mxCell id="e9DzHkO6Z4M1-QwWfhWD-62" style="edgeStyle=orthogonalEdgeStyle;rounded=0;orthogonalLoop=1;jettySize=auto;html=1;exitX=0.5;exitY=0;exitDx=0;exitDy=0;entryX=0.5;entryY=1;entryDx=0;entryDy=0;" parent="1" source="e9DzHkO6Z4M1-QwWfhWD-30" target="e9DzHkO6Z4M1-QwWfhWD-28" edge="1">
          <mxGeometry relative="1" as="geometry" />
        </mxCell>
        <mxCell id="e9DzHkO6Z4M1-QwWfhWD-30" value="Inverzní S-box substituce" style="rounded=0;whiteSpace=wrap;html=1;fillColor=#b1ddf0;strokeColor=#10739e;" parent="1" vertex="1">
          <mxGeometry x="520" y="310" width="120" height="60" as="geometry" />
        </mxCell>
        <mxCell id="e9DzHkO6Z4M1-QwWfhWD-61" style="edgeStyle=orthogonalEdgeStyle;rounded=0;orthogonalLoop=1;jettySize=auto;html=1;exitX=0.5;exitY=0;exitDx=0;exitDy=0;" parent="1" source="e9DzHkO6Z4M1-QwWfhWD-32" target="e9DzHkO6Z4M1-QwWfhWD-30" edge="1">
          <mxGeometry relative="1" as="geometry" />
        </mxCell>
        <mxCell id="e9DzHkO6Z4M1-QwWfhWD-32" value="Inverzní posun řádků matice" style="rounded=0;whiteSpace=wrap;html=1;fillColor=#b0e3e6;strokeColor=#0e8088;" parent="1" vertex="1">
          <mxGeometry x="520" y="390" width="120" height="60" as="geometry" />
        </mxCell>
        <mxCell id="e9DzHkO6Z4M1-QwWfhWD-60" style="edgeStyle=orthogonalEdgeStyle;rounded=0;orthogonalLoop=1;jettySize=auto;html=1;exitX=0.5;exitY=0;exitDx=0;exitDy=0;entryX=0.5;entryY=1;entryDx=0;entryDy=0;" parent="1" source="e9DzHkO6Z4M1-QwWfhWD-34" target="e9DzHkO6Z4M1-QwWfhWD-32" edge="1">
          <mxGeometry relative="1" as="geometry" />
        </mxCell>
        <mxCell id="e9DzHkO6Z4M1-QwWfhWD-34" value="Reverzní pronásobení matic&lt;br&gt;Galois multiply" style="rounded=0;whiteSpace=wrap;html=1;fillColor=#d0cee2;strokeColor=#56517e;" parent="1" vertex="1">
          <mxGeometry x="520" y="505" width="120" height="60" as="geometry" />
        </mxCell>
        <mxCell id="e9DzHkO6Z4M1-QwWfhWD-50" style="edgeStyle=orthogonalEdgeStyle;rounded=0;orthogonalLoop=1;jettySize=auto;html=1;exitX=0.5;exitY=0;exitDx=0;exitDy=0;entryX=0.5;entryY=1;entryDx=0;entryDy=0;" parent="1" source="e9DzHkO6Z4M1-QwWfhWD-37" target="e9DzHkO6Z4M1-QwWfhWD-42" edge="1">
          <mxGeometry relative="1" as="geometry" />
        </mxCell>
        <mxCell id="e9DzHkO6Z4M1-QwWfhWD-37" value="Inverzní S-box substituce" style="rounded=0;whiteSpace=wrap;html=1;fillColor=#b1ddf0;strokeColor=#10739e;" parent="1" vertex="1">
          <mxGeometry x="520" y="660" width="120" height="60" as="geometry" />
        </mxCell>
        <mxCell id="e9DzHkO6Z4M1-QwWfhWD-49" style="edgeStyle=orthogonalEdgeStyle;rounded=0;orthogonalLoop=1;jettySize=auto;html=1;exitX=0.5;exitY=0;exitDx=0;exitDy=0;entryX=0.5;entryY=1;entryDx=0;entryDy=0;" parent="1" source="e9DzHkO6Z4M1-QwWfhWD-38" target="e9DzHkO6Z4M1-QwWfhWD-37" edge="1">
          <mxGeometry relative="1" as="geometry" />
        </mxCell>
        <mxCell id="e9DzHkO6Z4M1-QwWfhWD-38" value="Inverzní posun řádků matice" style="rounded=0;whiteSpace=wrap;html=1;fillColor=#b0e3e6;strokeColor=#0e8088;" parent="1" vertex="1">
          <mxGeometry x="520" y="735" width="120" height="60" as="geometry" />
        </mxCell>
        <mxCell id="e9DzHkO6Z4M1-QwWfhWD-56" style="edgeStyle=orthogonalEdgeStyle;rounded=0;orthogonalLoop=1;jettySize=auto;html=1;exitX=0.5;exitY=0;exitDx=0;exitDy=0;" parent="1" source="e9DzHkO6Z4M1-QwWfhWD-40" target="e9DzHkO6Z4M1-QwWfhWD-38" edge="1">
          <mxGeometry relative="1" as="geometry" />
        </mxCell>
        <mxCell id="e9DzHkO6Z4M1-QwWfhWD-40" value="Kombinace klíče se vstupem&amp;nbsp;&amp;nbsp;(in ⊕ K₂)" style="rounded=0;whiteSpace=wrap;html=1;" parent="1" vertex="1">
          <mxGeometry x="510" y="820" width="140" height="60" as="geometry" />
        </mxCell>
        <mxCell id="e9DzHkO6Z4M1-QwWfhWD-47" style="edgeStyle=orthogonalEdgeStyle;rounded=0;orthogonalLoop=1;jettySize=auto;html=1;exitX=0.5;exitY=0;exitDx=0;exitDy=0;entryX=0.5;entryY=1;entryDx=0;entryDy=0;" parent="1" source="e9DzHkO6Z4M1-QwWfhWD-42" target="e9DzHkO6Z4M1-QwWfhWD-34" edge="1">
          <mxGeometry relative="1" as="geometry" />
        </mxCell>
        <mxCell id="e9DzHkO6Z4M1-QwWfhWD-42" value="Kombinace klíče se vstupem&amp;nbsp;&amp;nbsp;(in ⊕ K₁)" style="rounded=0;whiteSpace=wrap;html=1;" parent="1" vertex="1">
          <mxGeometry x="520" y="585" width="120" height="60" as="geometry" />
        </mxCell>
        <mxCell id="e9DzHkO6Z4M1-QwWfhWD-55" style="edgeStyle=orthogonalEdgeStyle;rounded=0;orthogonalLoop=1;jettySize=auto;html=1;exitX=0.5;exitY=0;exitDx=0;exitDy=0;entryX=0.5;entryY=1;entryDx=0;entryDy=0;" parent="1" source="e9DzHkO6Z4M1-QwWfhWD-43" target="e9DzHkO6Z4M1-QwWfhWD-40" edge="1">
          <mxGeometry relative="1" as="geometry" />
        </mxCell>
        <mxCell id="e9DzHkO6Z4M1-QwWfhWD-43" value="Šifrovaný vstup" style="shape=parallelogram;perimeter=parallelogramPerimeter;whiteSpace=wrap;html=1;fixedSize=1;" parent="1" vertex="1">
          <mxGeometry x="520" y="900" width="120" height="60" as="geometry" />
        </mxCell>
        <mxCell id="e9DzHkO6Z4M1-QwWfhWD-45" value="K₁ (16b)" style="edgeLabel;html=1;align=center;verticalAlign=middle;resizable=0;points=[];" parent="1" vertex="1" connectable="0">
          <mxGeometry x="460" y="600" as="geometry">
            <mxPoint x="4" as="offset" />
          </mxGeometry>
        </mxCell>
        <mxCell id="e9DzHkO6Z4M1-QwWfhWD-46" value="Runda #1" style="text;html=1;align=center;verticalAlign=middle;resizable=0;points=[];autosize=1;strokeColor=none;fillColor=none;" parent="1" vertex="1">
          <mxGeometry x="660" y="490" width="80" height="30" as="geometry" />
        </mxCell>
        <mxCell id="e9DzHkO6Z4M1-QwWfhWD-58" value="K₂&amp;nbsp;(16b)" style="edgeLabel;html=1;align=center;verticalAlign=middle;resizable=0;points=[];" parent="1" vertex="1" connectable="0">
          <mxGeometry x="460" y="850" as="geometry">
            <mxPoint x="3" y="-1" as="offset" />
          </mxGeometry>
        </mxCell>
        <mxCell id="e9DzHkO6Z4M1-QwWfhWD-59" value="Runda #2" style="text;html=1;align=center;verticalAlign=middle;resizable=0;points=[];autosize=1;strokeColor=none;fillColor=none;" parent="1" vertex="1">
          <mxGeometry x="660" y="210" width="80" height="30" as="geometry" />
        </mxCell>
      </root>
    </mxGraphModel>
  </diagram>
</mxfile>
